<?xml version="1.0" encoding="utf-8"?>
<!-- Generator: Adobe Illustrator 23.0.4, SVG Export Plug-In . SVG Version: 6.00 Build 0)  -->
<svg version="1.1" id="Layer_1" xmlns="http://www.w3.org/2000/svg" xmlns:xlink="http://www.w3.org/1999/xlink" x="0px" y="0px"
	 viewBox="0 0 275.6 861.7" style="enable-background:new 0 0 275.6 861.7;" xml:space="preserve">
<style type="text/css">
	.st0{fill:#EB975A;}
</style>
<g id="Group_452" transform="translate(0)">
	<g id="Group_354" transform="translate(34.219 150.855)">
		<g id="Group_341" transform="translate(64.505 64.503)">
			
				<rect id="Rectangle_146" x="20" y="-7.7" transform="matrix(0.7071 -0.7071 0.7071 0.7071 -8.6863 20.9784)" class="st0" width="2" height="57.4"/>
		</g>
		<g id="Group_353">
			<g id="Group_342" transform="translate(47.324 47.322)">
				<path id="Path_304" class="st0" d="M0,58.4h2C2,27.3,27.3,2,58.4,2V0C26.2,0,0,26.2,0,58.4z"/>
			</g>
			<g id="Group_343" transform="translate(23.663 23.661)">
				<path id="Path_305" class="st0" d="M0,82.1h2C2,37.9,37.9,2,82.1,2V0C36.8,0.1,0.1,36.8,0,82.1z"/>
			</g>
			<g id="Group_344">
				<path id="Path_306" class="st0" d="M0,106.7h106.7V0h-1C47.4,0.1,0.1,47.4,0,105.8V106.7z M104.8,104.8H2
					C2.6,48.2,48.3,2.5,104.8,2V104.8z"/>
			</g>
			<g id="Group_345" transform="translate(70.753 58.936)">
				
					<rect id="Rectangle_147" x="16.9" y="-6.4" transform="matrix(0.7071 -0.7071 0.7071 0.7071 -7.4032 17.8822)" class="st0" width="2" height="48.6"/>
			</g>
			<g id="Group_346" transform="translate(78.036 54.406)">
				
					<rect id="Rectangle_148" x="13.2" y="-4.9" transform="matrix(0.7071 -0.7071 0.7071 0.7071 -5.8712 14.1837)" class="st0" width="2" height="38.2"/>
			</g>
			<g id="Group_347" transform="translate(86.235 50.79)">
				
					<rect id="Rectangle_149" x="9.2" y="-3.2" transform="matrix(0.7071 -0.7071 0.7071 0.7071 -4.1944 10.1356)" class="st0" width="2" height="26.7"/>
			</g>
			<g id="Group_348" transform="translate(95.544 48.285)">
				
					<rect id="Rectangle_150" x="4.5" y="-1.3" transform="matrix(0.7071 -0.7071 0.7071 0.7071 -2.2536 5.4486)" class="st0" width="2" height="13.4"/>
			</g>
			<g id="Group_349" transform="translate(50.814 86.252)">
				
					<rect id="Rectangle_151" x="9.2" y="-3.2" transform="matrix(0.7071 -0.7071 0.7071 0.7071 -4.1985 10.144)" class="st0" width="2" height="26.7"/>
			</g>
			<g id="Group_350" transform="translate(54.348 77.973)">
				
					<rect id="Rectangle_152" x="13.3" y="-4.9" transform="matrix(0.7071 -0.7071 0.7071 0.7071 -5.9093 14.2742)" class="st0" width="2" height="38.4"/>
			</g>
			<g id="Group_351" transform="translate(48.434 95.686)">
				
					<rect id="Rectangle_153" x="4.5" y="-1.3" transform="matrix(0.7071 -0.7071 0.7071 0.7071 -2.248 5.435)" class="st0" width="2" height="13.4"/>
			</g>
			<g id="Group_352" transform="translate(58.938 70.749)">
				
					<rect id="Rectangle_154" x="16.9" y="-6.4" transform="matrix(0.7071 -0.7071 0.7071 0.7071 -7.4129 17.9042)" class="st0" width="2" height="48.7"/>
			</g>
		</g>
	</g>
	<g id="Group_355" transform="translate(6.844 388.781)">
		<rect id="Rectangle_155" x="0" y="0" class="st0" width="2" height="471.5"/>
	</g>
	<g id="Group_356" transform="translate(37.902 424.631)">
		<rect id="Rectangle_156" x="0" y="0" class="st0" width="2" height="214.2"/>
	</g>
	<g id="Group_357" transform="translate(31.058 423.251)">
		<path id="Path_307" class="st0" d="M14.3,9.2l1.4-1.4L7.8,0L0,7.8l1.4,1.4l6.4-6.4L14.3,9.2z"/>
	</g>
	<g id="Group_358" transform="translate(143.448 852.478)">
		<path id="Path_308" class="st0" d="M7.8,9.2l7.8-7.8L14.3,0L7.8,6.4L1.4,0L0,1.4L7.8,9.2z"/>
	</g>
	<g id="Group_359" transform="translate(0 852.478)">
		<path id="Path_309" class="st0" d="M7.8,9.2l7.8-7.8L14.3,0L7.8,6.4L1.4,0L0,1.4L7.8,9.2z"/>
	</g>
	<g id="Group_360" transform="translate(50.769 47.285)">
		<path id="Path_310" class="st0" d="M0,90.2h90.2V0h-1C40,0.1,0.1,40,0,89.2V90.2z M88.2,88.2H2C2.5,40.8,40.8,2.5,88.2,2
			L88.2,88.2z"/>
	</g>
	<g id="Group_361" transform="translate(24.397 20.914)">
		
			<rect id="Rectangle_157" x="57.2" y="-23.1" transform="matrix(0.7071 -0.7071 0.7071 0.7071 -24.0799 58.142)" class="st0" width="2" height="162.5"/>
	</g>
	<g id="Group_362" transform="translate(24.11 20.628)">
		<path id="Path_311" class="st0" d="M2,10.3V2h8.3V0H0v10.3H2z"/>
	</g>
	<g id="Group_363" transform="translate(150.242 695.726)">
		<path id="Path_312" class="st0" d="M0,90.2h1c49.2-0.1,89.2-40,89.2-89.2V0H0V90.2z M88.2,2C87.7,49.4,49.4,87.7,2,88.2V2L88.2,2z
			"/>
	</g>
	<g id="Group_364" transform="translate(150.474 696.065)">
		
			<rect id="Rectangle_158" x="57.2" y="-23.2" transform="matrix(0.7065 -0.7078 0.7078 0.7065 -24.0281 58.2405)" class="st0" width="2" height="162.5"/>
	</g>
	<g id="Group_365" transform="translate(256.828 802.315)">
		<path id="Path_313" class="st0" d="M0,10.3h10.3V0h-2v8.3H0L0,10.3z"/>
	</g>
	<g id="Group_369" transform="translate(234.488 94.623)">
		<g id="Group_366" transform="translate(0.018 40.9)">
			<path id="Path_314" class="st0" d="M0,42.9h1c22.1,0,40.1-18.8,40.1-41.9V0H0L0,42.9z M39.1,2C38.6,23.2,22.2,40.4,2,40.9L2,2
				L39.1,2z"/>
		</g>
		<g id="Group_367" transform="translate(0.018)">
			<path id="Path_315" class="st0" d="M0,42.9h41.1v-1C41.1,18.8,23.1,0,1,0H0L0,42.9z M39.1,40.9H2L2,2
				C22.2,2.5,38.6,19.7,39.1,40.9L39.1,40.9z"/>
		</g>
		<g id="Group_368" transform="translate(0 72.328)">
			<path id="Path_316" class="st0" d="M10.4,20.8c5.7,0,10.4-4.7,10.4-10.4C20.8,4.7,16.1,0,10.4,0C4.7,0,0,4.7,0,10.4
				C0,16.1,4.7,20.8,10.4,20.8z M10.4,2c4.7,0,8.4,3.8,8.4,8.4c0,4.7-3.8,8.4-8.4,8.4C5.7,18.8,2,15,2,10.4C2,5.7,5.7,2,10.4,2
				L10.4,2z"/>
		</g>
	</g>
	<g id="Group_383" transform="translate(6.843 255.641)">
		<g id="Group_370" transform="translate(0.287 0.287)">
			
				<rect id="Rectangle_159" x="25.3" y="-9.9" transform="matrix(0.7071 -0.7071 0.7071 0.7071 -10.8814 26.278)" class="st0" width="2" height="72.4"/>
		</g>
		<g id="Group_382">
			<g id="Group_371" transform="translate(0.976 0.976)">
				<path id="Path_317" class="st0" d="M0,73.5c40.5,0,73.4-32.9,73.5-73.5h-2c0,39.5-32,71.5-71.5,71.5L0,73.5z"/>
			</g>
			<g id="Group_372" transform="translate(0.976 0.976)">
				<path id="Path_318" class="st0" d="M0,103.3C57,103.2,103.2,57,103.3,0h-2C101.3,55.9,56,101.3,0,101.3V103.3z"/>
			</g>
			<g id="Group_373">
				<path id="Path_319" class="st0" d="M0,134.1h1c73.4,0,133.1-59.7,133.1-133.1V0H0V134.1z M132.2,2
					C131.6,73.5,73.5,131.6,2,132.2V2H132.2z"/>
			</g>
			<g id="Group_374" transform="translate(0.219 15.119)">
				
					<rect id="Rectangle_160" x="21.4" y="-8.3" transform="matrix(0.7071 -0.7071 0.7071 0.7071 -9.2631 22.3724)" class="st0" width="2" height="61.3"/>
			</g>
			<g id="Group_375" transform="translate(0.363 30.164)">
				
					<rect id="Rectangle_161" x="16.7" y="-6.4" transform="matrix(0.7071 -0.7071 0.7071 0.7071 -7.3313 17.7072)" class="st0" width="2" height="48.1"/>
			</g>
			<g id="Group_376" transform="translate(0.232 44.933)">
				
					<rect id="Rectangle_162" x="11.6" y="-4.2" transform="matrix(0.7071 -0.7071 0.7071 0.7071 -5.2166 12.6018)" class="st0" width="2" height="33.7"/>
			</g>
			<g id="Group_377" transform="translate(0.314 59.915)">
				
					<rect id="Rectangle_163" x="5.7" y="-1.8" transform="matrix(0.7071 -0.7071 0.7071 0.7071 -2.768 6.6905)" class="st0" width="2" height="17"/>
			</g>
			<g id="Group_378" transform="translate(44.886 0.185)">
				
					<rect id="Rectangle_164" x="11.6" y="-4.2" transform="matrix(0.7071 -0.7071 0.7071 0.7071 -5.2213 12.6132)" class="st0" width="2" height="33.7"/>
			</g>
			<g id="Group_379" transform="translate(30.011 0.209)">
				
					<rect id="Rectangle_165" x="16.8" y="-6.4" transform="matrix(0.7071 -0.7071 0.7071 0.7071 -7.3785 17.8213)" class="st0" width="2" height="48.4"/>
			</g>
			<g id="Group_380" transform="translate(59.765 0.164)">
				
					<rect id="Rectangle_166" x="5.7" y="-1.8" transform="matrix(0.7071 -0.7071 0.7071 0.7071 -2.7606 6.6739)" class="st0" width="2" height="16.9"/>
			</g>
			<g id="Group_381" transform="translate(15.064 0.164)">
				
					<rect id="Rectangle_167" x="21.4" y="-8.3" transform="matrix(0.7071 -0.7071 0.7071 0.7071 -9.2752 22.4001)" class="st0" width="2" height="61.4"/>
			</g>
		</g>
	</g>
	<g id="Group_387" transform="translate(170.34 198.396)">
		<g id="Group_384" transform="translate(0.026 57.245)">
			<path id="Path_320" class="st0" d="M0,59.2h1c30.7,0,55.7-26.1,55.7-58.2V0H0L0,59.2z M54.8,2C54.3,32.2,30.9,56.7,2,57.2L2,2
				H54.8z"/>
		</g>
		<g id="Group_385" transform="translate(0.026)">
			<path id="Path_321" class="st0" d="M0,59.2h56.7v-1C56.7,26.1,31.7,0,1,0H0L0,59.2z M54.8,57.2H2L2,2C30.9,2.5,54.3,27,54.8,57.2
				z"/>
		</g>
		<g id="Group_386" transform="translate(0 101.229)">
			<path id="Path_322" class="st0" d="M14.2,28.3c7.8,0,14.1-6.3,14.1-14.1C28.3,6.3,22,0,14.2,0C6.3,0,0,6.3,0,14.1
				C0,22,6.3,28.3,14.2,28.3z M14.2,2c6.7,0,12.2,5.5,12.2,12.2c0,6.7-5.5,12.2-12.2,12.2C7.4,26.3,2,20.9,2,14.1
				C2,7.4,7.4,2,14.2,2z"/>
		</g>
	</g>
	<g id="Group_388" transform="translate(139.007 135.523)">
		<path id="Path_323" class="st0" d="M0,122.1h122.1v-1C122,54.2,67.8,0.1,1,0H0V122.1z M120.1,120.1H2V2
			C67,2.6,119.5,55.1,120.1,120.1z"/>
	</g>
	<g id="Group_389" transform="translate(139.983 135.524)">
		<rect id="Rectangle_168" x="0" y="0" class="st0" width="95.5" height="2"/>
	</g>
	<g id="Group_393" transform="translate(150.262 432.884)">
		<g id="Group_390" transform="translate(0.018 40.9)">
			<path id="Path_324" class="st0" d="M0,42.9h1c22.1,0,40.1-18.8,40.1-41.9V0H0L0,42.9z M39.1,2C38.6,23.2,22.2,40.4,2,40.9L2,2
				H39.1z"/>
		</g>
		<g id="Group_391" transform="translate(0.018)">
			<path id="Path_325" class="st0" d="M0,42.9h41.1v-1C41.1,18.8,23.1,0,1,0H0L0,42.9z M39.1,40.9H2L2,2
				C22.2,2.5,38.6,19.7,39.1,40.9L39.1,40.9z"/>
		</g>
		<g id="Group_392" transform="translate(0 72.325)">
			<path id="Path_326" class="st0" d="M10.4,20.8c5.7,0,10.4-4.7,10.4-10.4C20.8,4.7,16.1,0,10.4,0C4.7,0,0,4.7,0,10.4
				C0,16.1,4.7,20.8,10.4,20.8z M10.4,2c4.7,0,8.4,3.8,8.4,8.4c0,4.7-3.8,8.4-8.4,8.4C5.7,18.8,2,15,2,10.4C2,5.7,5.7,2,10.4,2z"/>
		</g>
	</g>
	<g id="Group_394" transform="translate(7.868 473.783)">
		<rect id="Rectangle_169" x="0" y="0" class="st0" width="143.4" height="2"/>
	</g>
	<g id="Group_395" transform="translate(7.818 403.088)">
		<path id="Path_327" class="st0" d="M0,16.2c4.5,0,6.8-4.1,8.7-7.6c1.9-3.4,3.7-6.6,7-6.6s5.1,3.2,7,6.6c2,3.6,4.2,7.6,8.7,7.6
			s6.8-4.1,8.7-7.6c1.9-3.4,3.7-6.6,7-6.6s5.1,3.2,7,6.6c2,3.6,4.2,7.6,8.7,7.6s6.8-4.1,8.7-7.6c1.9-3.4,3.7-6.6,7-6.6
			s5.1,3.2,7,6.6c2,3.6,4.2,7.6,8.7,7.6s6.8-4.1,8.7-7.6c1.9-3.4,3.7-6.6,7-6.6s5.1,3.2,7,6.6c2,3.6,4.2,7.6,8.7,7.6
			s6.8-4.1,8.7-7.6c1.9-3.4,3.7-6.6,7-6.6s5.1,3.2,7,6.6c2,3.6,4.2,7.6,8.7,7.6s6.8-4.1,8.7-7.6c1.9-3.4,3.7-6.6,7-6.6
			s5.1,3.2,7,6.6c2,3.6,4.2,7.6,8.7,7.6s6.8-4.1,8.7-7.6c1.9-3.4,3.7-6.6,7-6.6c3.4,0,5.1,3.2,7,6.6c2,3.6,4.2,7.6,8.7,7.6
			s6.8-4.1,8.7-7.6c1.9-3.4,3.7-6.6,7-6.6c3.4,0,5.2,3.2,7,6.6c2,3.6,4.2,7.6,8.8,7.6v-2c-3.4,0-5.2-3.2-7-6.6
			c-2-3.6-4.2-7.6-8.7-7.6s-6.8,4.1-8.7,7.6c-1.9,3.4-3.7,6.6-7,6.6s-5.1-3.2-7-6.6c-2-3.6-4.2-7.6-8.7-7.6c-4.5,0-6.8,4.1-8.7,7.6
			c-1.9,3.4-3.7,6.6-7,6.6s-5.1-3.2-7-6.6c-2-3.6-4.2-7.6-8.7-7.6s-6.8,4.1-8.7,7.6c-1.9,3.4-3.7,6.6-7,6.6s-5.1-3.2-7-6.6
			c-2-3.6-4.2-7.6-8.7-7.6s-6.8,4.1-8.7,7.6c-1.9,3.4-3.7,6.6-7,6.6c-3.4,0-5.1-3.2-7-6.6c-2-3.6-4.2-7.6-8.7-7.6s-6.8,4.1-8.7,7.6
			c-1.9,3.4-3.7,6.6-7,6.6s-5.1-3.2-7-6.6c-2-3.6-4.2-7.6-8.7-7.6s-6.8,4.1-8.7,7.6c-1.9,3.4-3.7,6.6-7,6.6c-3.4,0-5.1-3.2-7-6.6
			c-2-3.6-4.2-7.6-8.7-7.6s-6.8,4.1-8.7,7.6c-1.9,3.4-3.7,6.6-7,6.6s-5.1-3.2-7-6.6c-2-3.6-4.2-7.6-8.7-7.6S9,4.1,7,7.6
			c-1.9,3.4-3.7,6.6-7,6.6L0,16.2z"/>
	</g>
	<g id="Group_396" transform="translate(7.818 551.032)">
		<path id="Path_328" class="st0" d="M0,16.2c4.5,0,6.8-4.1,8.7-7.6c1.9-3.4,3.7-6.6,7-6.6s5.1,3.2,7,6.6c2,3.6,4.2,7.6,8.7,7.6
			s6.8-4.1,8.7-7.6c1.9-3.4,3.7-6.6,7-6.6s5.1,3.2,7,6.6c2,3.6,4.2,7.6,8.7,7.6s6.8-4.1,8.7-7.6c1.9-3.4,3.7-6.6,7-6.6
			s5.1,3.2,7,6.6c2,3.6,4.2,7.6,8.7,7.6s6.8-4.1,8.7-7.6c1.9-3.4,3.7-6.6,7-6.6s5.1,3.2,7,6.6c2,3.6,4.2,7.6,8.7,7.6
			s6.8-4.1,8.7-7.6c1.9-3.4,3.7-6.6,7-6.6s5.1,3.2,7,6.6c2,3.6,4.2,7.6,8.7,7.6s6.8-4.1,8.7-7.6c1.9-3.4,3.7-6.6,7-6.6
			s5.1,3.2,7,6.6c2,3.6,4.2,7.6,8.7,7.6s6.8-4.1,8.7-7.6c1.9-3.4,3.7-6.6,7-6.6c3.4,0,5.1,3.2,7,6.6c2,3.6,4.2,7.6,8.7,7.6
			s6.8-4.1,8.7-7.6c1.9-3.4,3.7-6.6,7-6.6c3.4,0,5.2,3.2,7,6.6c2,3.6,4.2,7.6,8.8,7.6v-2c-3.4,0-5.2-3.2-7-6.6
			c-2-3.6-4.2-7.6-8.7-7.6s-6.8,4.1-8.7,7.6c-1.9,3.4-3.7,6.6-7,6.6s-5.1-3.2-7-6.6c-2-3.6-4.2-7.6-8.7-7.6c-4.5,0-6.8,4.1-8.7,7.6
			c-1.9,3.4-3.7,6.6-7,6.6s-5.1-3.2-7-6.6c-2-3.6-4.2-7.6-8.7-7.6s-6.8,4.1-8.7,7.6c-1.9,3.4-3.7,6.6-7,6.6s-5.1-3.2-7-6.6
			c-2-3.6-4.2-7.6-8.7-7.6s-6.8,4.1-8.7,7.6c-1.9,3.4-3.7,6.6-7,6.6c-3.4,0-5.1-3.2-7-6.6c-2-3.6-4.2-7.6-8.7-7.6s-6.8,4.1-8.7,7.6
			c-1.9,3.4-3.7,6.6-7,6.6s-5.1-3.2-7-6.6c-2-3.6-4.2-7.6-8.7-7.6s-6.8,4.1-8.7,7.6c-1.9,3.4-3.7,6.6-7,6.6c-3.4,0-5.1-3.2-7-6.6
			c-2-3.6-4.2-7.6-8.7-7.6s-6.8,4.1-8.7,7.6c-1.9,3.4-3.7,6.6-7,6.6s-5.1-3.2-7-6.6c-2-3.6-4.2-7.6-8.7-7.6S9,4.1,7,7.6
			c-1.9,3.4-3.7,6.6-7,6.6L0,16.2z"/>
	</g>
	<g id="Group_410" transform="translate(37.901 637.906)">
		<g id="Group_397" transform="translate(45.931 0.285)">
			
				<rect id="Rectangle_170" x="-5.3" y="14.1" transform="matrix(0.7071 -0.7071 0.7071 0.7071 -6.2567 15.1127)" class="st0" width="40.8" height="2"/>
		</g>
		<g id="Group_409">
			<g id="Group_398" transform="translate(33.639 0.976)">
				<path id="Path_329" class="st0" d="M41.8,41.8v-2C19.8,39.8,2,22,2,0H0C0,23.1,18.7,41.8,41.8,41.8z"/>
			</g>
			<g id="Group_399" transform="translate(16.818 0.976)">
				<path id="Path_330" class="st0" d="M58.6,58.6v-2C27.4,56.7,2,31.3,2,0H0C0,32.4,26.3,58.6,58.6,58.6z"/>
			</g>
			<g id="Group_400">
				<path id="Path_331" class="st0" d="M75.5,76.4h1V0H0v1C0.1,42.6,33.8,76.4,75.5,76.4z M74.5,1.9v72.5C34.7,73.9,2.5,41.8,2,1.9
					H74.5z"/>
			</g>
			<g id="Group_401" transform="translate(41.974 0.247)">
				
					<rect id="Rectangle_171" x="-4.4" y="11.9" transform="matrix(0.7071 -0.7071 0.7071 0.7071 -5.3444 12.9112)" class="st0" width="34.6" height="2"/>
			</g>
			<g id="Group_402" transform="translate(38.754 0.328)">
				
					<rect id="Rectangle_172" x="-3.3" y="9.3" transform="matrix(0.7071 -0.7071 0.7071 0.7071 -4.2562 10.2809)" class="st0" width="27.1" height="2"/>
			</g>
			<g id="Group_403" transform="translate(36.184 0.254)">
				
					<rect id="Rectangle_173" x="-2.1" y="6.4" transform="matrix(0.7071 -0.7071 0.7071 0.7071 -3.0637 7.4052)" class="st0" width="19" height="2"/>
			</g>
			<g id="Group_404" transform="translate(34.404 0.3)">
				
					<rect id="Rectangle_174" x="-0.7" y="3.1" transform="matrix(0.7071 -0.7071 0.7071 0.7071 -1.6843 4.0742)" class="st0" width="9.6" height="2"/>
			</g>
			<g id="Group_405" transform="translate(61.389 25.419)">
				
					<rect id="Rectangle_175" x="-2.1" y="6.4" transform="matrix(0.7071 -0.7071 0.7071 0.7071 -3.066 7.4114)" class="st0" width="19" height="2"/>
			</g>
			<g id="Group_406" transform="translate(55.505 17.034)">
				
					<rect id="Rectangle_176" x="-3.3" y="9.4" transform="matrix(0.7071 -0.7071 0.7071 0.7071 -4.2841 10.3467)" class="st0" width="27.3" height="2"/>
			</g>
			<g id="Group_407" transform="translate(68.095 33.803)">
				
					<rect id="Rectangle_177" x="-0.7" y="3.1" transform="matrix(0.7071 -0.7071 0.7071 0.7071 -1.6799 4.0638)" class="st0" width="9.5" height="2"/>
			</g>
			<g id="Group_408" transform="translate(50.371 8.611)">
				
					<rect id="Rectangle_178" x="-4.4" y="11.9" transform="matrix(0.7071 -0.7071 0.7071 0.7071 -5.3517 12.9277)" class="st0" width="34.6" height="2"/>
			</g>
		</g>
	</g>
	<g id="Group_414" transform="translate(116.387 652.989)">
		<g id="Group_411" transform="translate(6.296 0.013)">
			<path id="Path_332" class="st0" d="M28.5,28.3h1V0L0,0v1C0,16.1,12.8,28.3,28.5,28.3z M27.6,2v24.4C13.7,25.9,2.5,15.2,2,2
				L27.6,2z"/>
		</g>
		<g id="Group_412" transform="translate(33.855 0.013)">
			<path id="Path_333" class="st0" d="M0,28.3h1c15.7,0,28.5-12.3,28.5-27.3V0L0,0V28.3z M27.5,2C27,15.2,15.8,25.9,2,26.3V1.9
				L27.5,2z"/>
		</g>
		<g id="Group_413" transform="translate(0)">
			<path id="Path_334" class="st0" d="M7.3,14.6c4,0,7.3-3.3,7.3-7.3c0-4-3.3-7.3-7.3-7.3C3.3,0,0,3.3,0,7.3
				C0,11.4,3.3,14.6,7.3,14.6z M7.3,2c3,0,5.4,2.4,5.4,5.4c0,3-2.4,5.4-5.4,5.4c-3,0-5.4-2.4-5.4-5.4C2,4.4,4.4,2,7.3,2L7.3,2z"/>
		</g>
	</g>
	<g id="Group_415" transform="translate(150.241 637.906)">
		<path id="Path_335" class="st0" d="M0,59.8h1c32.5,0,58.8-26.3,58.8-58.8V0H0L0,59.8z M57.8,1.9C57.3,32.6,32.6,57.3,2,57.8V1.9
			H57.8z"/>
	</g>
	<g id="Group_416" transform="translate(150.29 433.859)">
		<rect id="Rectangle_179" x="0" y="0" class="st0" width="2" height="426.4"/>
	</g>
	<g id="Group_417" transform="translate(86.284 0)">
		<path id="Path_336" class="st0" d="M21.6,43.2h1V0h-1C9.7,0,0,9.7,0,21.6C0,33.5,9.7,43.2,21.6,43.2z M20.6,2v39.3
			C10.2,40.7,2,32.1,2,21.6C2,11.1,10.2,2.5,20.6,2L20.6,2z"/>
	</g>
	<g id="Group_418" transform="translate(87.258 20.628)">
		<rect id="Rectangle_180" x="0" y="0" class="st0" width="105.3" height="2"/>
	</g>
	<g id="Group_419" transform="translate(186.736 15.752)">
		<path id="Path_337" class="st0" d="M1.4,11.7l5.9-5.9L1.4,0L0,1.4l4.5,4.5L0,10.3L1.4,11.7z"/>
	</g>
	<g id="Group_420" transform="translate(139.004 21.372)">
		<rect id="Rectangle_181" x="0" y="0" class="st0" width="2" height="26.9"/>
	</g>
	<g id="Group_421" transform="translate(90.308 520.823)">
		<ellipse id="Ellipse_69" class="st0" cx="2.5" cy="2.5" rx="2.5" ry="2.5"/>
	</g>
	<g id="Group_422" transform="translate(90.308 536.23)">
		<ellipse id="Ellipse_70" class="st0" cx="2.5" cy="2.5" rx="2.5" ry="2.5"/>
	</g>
	<g id="Group_423" transform="translate(90.308 505.416)">
		<ellipse id="Ellipse_71" class="st0" cx="2.5" cy="2.5" rx="2.5" ry="2.5"/>
	</g>
	<g id="Group_424" transform="translate(101.202 500.903)">
		<ellipse id="Ellipse_72" class="st0" cx="2.5" cy="2.5" rx="2.5" ry="2.5"/>
	</g>
	<g id="Group_425" transform="translate(105.715 490.009)">
		<ellipse id="Ellipse_73" class="st0" cx="2.5" cy="2.5" rx="2.5" ry="2.5"/>
	</g>
	<g id="Group_426" transform="translate(74.901 490.009)">
		<ellipse id="Ellipse_74" class="st0" cx="2.5" cy="2.5" rx="2.5" ry="2.5"/>
	</g>
	<g id="Group_427" transform="translate(79.413 500.903)">
		<ellipse id="Ellipse_75" class="st0" cx="2.5" cy="2.5" rx="2.5" ry="2.5"/>
	</g>
	<g id="Group_428" transform="translate(122.991 522.692)">
		<ellipse id="Ellipse_76" class="st0" cx="2.5" cy="2.5" rx="2.5" ry="2.5"/>
	</g>
	<g id="Group_429" transform="translate(112.096 511.798)">
		<ellipse id="Ellipse_77" class="st0" cx="2.5" cy="2.5" rx="2.5" ry="2.5"/>
	</g>
	<g id="Group_430" transform="translate(57.624 522.692)">
		<ellipse id="Ellipse_78" class="st0" cx="2.5" cy="2.5" rx="2.5" ry="2.5"/>
	</g>
	<g id="Group_431" transform="translate(68.519 511.798)">
		<ellipse id="Ellipse_79" class="st0" cx="2.5" cy="2.5" rx="2.5" ry="2.5"/>
	</g>
	<g id="Group_432" transform="translate(90.308 790.173)">
		<ellipse id="Ellipse_80" class="st0" cx="2.5" cy="2.5" rx="2.5" ry="2.5"/>
	</g>
	<g id="Group_433" transform="translate(90.308 805.58)">
		<ellipse id="Ellipse_81" class="st0" cx="2.5" cy="2.5" rx="2.5" ry="2.5"/>
	</g>
	<g id="Group_434" transform="translate(90.308 774.766)">
		<ellipse id="Ellipse_82" class="st0" cx="2.5" cy="2.5" rx="2.5" ry="2.5"/>
	</g>
	<g id="Group_435" transform="translate(101.202 770.254)">
		<ellipse id="Ellipse_83" class="st0" cx="2.5" cy="2.5" rx="2.5" ry="2.5"/>
	</g>
	<g id="Group_436" transform="translate(105.715 759.359)">
		<ellipse id="Ellipse_84" class="st0" cx="2.5" cy="2.5" rx="2.5" ry="2.5"/>
	</g>
	<g id="Group_437" transform="translate(74.901 759.359)">
		<ellipse id="Ellipse_85" class="st0" cx="2.5" cy="2.5" rx="2.5" ry="2.5"/>
	</g>
	<g id="Group_438" transform="translate(79.413 770.254)">
		<ellipse id="Ellipse_86" class="st0" cx="2.5" cy="2.5" rx="2.5" ry="2.5"/>
	</g>
	<g id="Group_439" transform="translate(122.991 792.042)">
		<ellipse id="Ellipse_87" class="st0" cx="2.5" cy="2.5" rx="2.5" ry="2.5"/>
	</g>
	<g id="Group_440" transform="translate(112.096 781.148)">
		<ellipse id="Ellipse_88" class="st0" cx="2.5" cy="2.5" rx="2.5" ry="2.5"/>
	</g>
	<g id="Group_441" transform="translate(57.624 792.042)">
		<ellipse id="Ellipse_89" class="st0" cx="2.5" cy="2.5" rx="2.5" ry="2.5"/>
	</g>
	<g id="Group_442" transform="translate(68.519 781.148)">
		<ellipse id="Ellipse_90" class="st0" cx="2.5" cy="2.5" rx="2.5" ry="2.5"/>
	</g>
</g>
</svg>
