<?xml version="1.0" encoding="utf-8"?>
<!-- Generator: Adobe Illustrator 23.0.4, SVG Export Plug-In . SVG Version: 6.00 Build 0)  -->
<svg version="1.1" id="Layer_1" xmlns="http://www.w3.org/2000/svg" xmlns:xlink="http://www.w3.org/1999/xlink" x="0px" y="0px"
	 viewBox="0 0 212.2 131.5" style="enable-background:new 0 0 212.2 131.5;" xml:space="preserve">
<style type="text/css">
	.st0{fill:#EB975A;}
</style>
<g id="Group_78" transform="translate(52.508 49.272)">
	<g id="Group_75">
		<path id="Path_61" class="st0" d="M0,1.2V0h3.9l2.7,12.3c0.4,2,0.8,4.1,1,6.2c0.1-1.4,0.5-3.5,1-6.2L11.3,0h4.1v1.2h-1.2V20h1.2
			v1.2h-4.3V20h1.3V7.8c0-2.3,0-4.3,0.1-6.1c-0.5,2.7-0.9,4.7-1.3,6L8.4,21.2H6.8L3.9,7.6C3.4,5.1,2.9,3,2.7,1.5
			c0.1,1.6,0.2,3.7,0.2,6.2V20H4v1.2H0V20h1.2V1.2L0,1.2z"/>
	</g>
	<g id="Group_76" transform="translate(18.446)">
		<path id="Path_62" class="st0" d="M7.2,21.1V20h1.5l-0.4-2.7H3.4L3,20h1.5v1.2H0V20h1.2L4.4,0H7l3.2,20h1.6v1.2H7.2z M4.7,9.1
			l-1.1,7h4.6L7,9.1C6.5,6.4,6.1,3.9,5.8,1.8C5.5,4.5,5.1,6.9,4.7,9.1L4.7,9.1z"/>
	</g>
	<g id="Group_77" transform="translate(33.345)">
		<path id="Path_63" class="st0" d="M4.1,6.4C3.8,5.7,3.6,4.7,3.2,3.6c-0.3-1.1-0.5-1.8-0.6-2c0.1,2.6,0.2,4.3,0.2,5V20h1.2v1.2H0
			V20h1.2V1.2H0V0h3.8l3.6,12.5c0.1,0.4,0.4,1.3,0.7,2.5c0.4,1.2,0.6,2.1,0.7,2.5c-0.1-2.6-0.2-4.3-0.2-5.1V1.2H7.3V0h4.1v1.2h-1.3
			v20H8.3L4.1,6.4z"/>
	</g>
</g>
<g id="Group_81" transform="translate(51.722 77.58)">
	<g id="Group_79">
		<path id="Path_64" class="st0" d="M8.7,13.1v5.1c0,2.3-1.4,3.4-4.3,3.4c-2.9,0-4.4-1.1-4.4-3.4V3.4C0,1.1,1.2,0,3.8,0
			C5-0.1,6.3,0.4,7.1,1.5V0.2h1.6V8H7V3.4c0-0.6-0.3-1.2-0.8-1.6C5.6,1.4,4.9,1.2,4.3,1.2C3.6,1.1,2.9,1.3,2.4,1.7
			C2,2.2,1.8,2.7,1.9,3.3v15c0,1.4,0.8,2.1,2.5,2.1S7,19.7,7,18.3v-5.3L8.7,13.1z"/>
	</g>
	<g id="Group_80" transform="translate(13.548)">
		<path id="Path_65" class="st0" d="M0,18.2V3.4C0,1.1,1.5,0,4.4,0c2.9,0,4.4,1.1,4.4,3.4v14.7c0,2.3-1.5,3.4-4.4,3.4
			C1.5,21.6,0,20.5,0,18.2z M1.9,18.3c0,1.4,0.8,2.1,2.5,2.1S7,19.7,7,18.3v-15c0-1.4-0.8-2.1-2.5-2.1S1.9,1.9,1.9,3.3V18.3z"/>
	</g>
</g>
<g id="Group_84" transform="translate(74.303 102.689)">
	<g id="Group_82">
		<path id="Path_66" class="st0" d="M8.7,13.1v5.1c0,2.3-1.4,3.4-4.3,3.4c-2.9,0-4.4-1.1-4.4-3.4V3.4C0,1.1,1.2,0,3.8,0
			C5-0.1,6.3,0.4,7.1,1.5V0.2h1.6V8H7V3.4c0-0.6-0.3-1.2-0.8-1.6C5.6,1.4,4.9,1.2,4.3,1.2C3.6,1.1,2.9,1.3,2.4,1.7
			C2,2.2,1.8,2.7,1.9,3.3v15c0,1.4,0.8,2.1,2.5,2.1c1.7,0,2.5-0.7,2.5-2.1v-5.3L8.7,13.1z"/>
	</g>
	<g id="Group_83" transform="translate(13.549)">
		<path id="Path_67" class="st0" d="M0,18.2V3.4C0,1.1,1.5,0,4.4,0c2.9,0,4.4,1.1,4.4,3.4v14.7c0,2.3-1.5,3.4-4.4,3.4
			C1.5,21.6,0,20.5,0,18.2z M1.9,18.3c0,1.4,0.8,2.1,2.5,2.1c1.7,0,2.5-0.7,2.5-2.1v-15c0-1.4-0.8-2.1-2.5-2.1
			c-1.7,0-2.5,0.7-2.5,2.1V18.3z"/>
	</g>
</g>
<g id="Group_89" transform="translate(77.514 87.423)">
	<g id="Group_86" transform="translate(0 0.865)">
		<g id="Group_85">
			<line id="Line_7" class="st0" x1="0" y1="0" x2="17.9" y2="0"/>
		</g>
	</g>
	<g id="Group_88" transform="translate(0)">
		<g id="Group_87">
			<rect id="Rectangle_9" x="0" y="0" class="st0" width="17.9" height="1.7"/>
		</g>
	</g>
</g>
<g id="Group_94" transform="translate(52.717 112.796)">
	<g id="Group_91" transform="translate(0 0.865)">
		<g id="Group_90">
			<line id="Line_8" class="st0" x1="0" y1="0" x2="17.9" y2="0"/>
		</g>
	</g>
	<g id="Group_93">
		<g id="Group_92">
			<rect id="Rectangle_10" x="0" y="0" class="st0" width="17.9" height="1.7"/>
		</g>
	</g>
</g>
<g id="Group_97" transform="translate(0 24.338)">
	<g id="Group_96">
		<g id="Group_95">
			<path id="Path_68" class="st0" d="M106,107.2L106,107.2L0.9,107.1c-0.5,0-0.9-0.4-0.9-0.8c0.1-8.7,1.3-17.4,3.5-25.8
				C7,66.9,14.8,47.1,31.8,30C47.9,13.9,67.3,6.6,80.7,3.4c8.2-2,16.6-3.2,25-3.3l0,0c0.2-0.1,0.4-0.1,0.6,0l0.2,0.1
				c0.5,0.1,0.7,0.6,0.5,1.1c0,0.1-0.1,0.2-0.2,0.3v104.8C106.8,106.8,106.5,107.2,106,107.2L106,107.2z M1.7,105.4l103.4,0.1V1.8
				c-6.7,0.1-44.5,1.9-72.1,29.4C3.4,60.8,1.8,99.2,1.7,105.4L1.7,105.4z"/>
		</g>
	</g>
</g>
<g id="Group_100" transform="translate(105.294)">
	<g id="Group_99">
		<g id="Group_98">
			<path id="Path_69" class="st0" d="M106,107.2H0.9c-0.5,0-0.9-0.4-0.9-0.9V0.9C0,0.4,0.4,0,0.8,0C9.4,0.1,18,1.2,26.3,3.3
				C39.6,6.6,58.9,13.9,75,30c17.1,17.1,24.8,36.9,28.3,50.5c2.3,8.4,3.5,17.1,3.6,25.8C106.9,106.8,106.5,107.2,106,107.2z
				 M1.7,105.5h103.5c-0.1-6.2-1.8-44.6-31.4-74.2C45.9,3.4,7.9,1.8,1.7,1.7L1.7,105.5z"/>
		</g>
	</g>
</g>
<g id="Group_103" transform="translate(105.059 24.095)">
	<g id="Group_102">
		<g id="Group_101">
			<path id="Path_70" class="st0" d="M82.2,83.1H1c-0.5,0-0.9-0.4-0.9-0.9V1.4C0.1,1.3,0,1.2,0,1.1c-0.1-0.4,0.2-0.8,0.6-1L0.7,0
				C0.9,0,1.1,0,1.3,0c4.2,0,34.8,0.9,57.1,23.2c24,24,24.6,55.5,24.6,58.7c0.2,0.4-0.1,0.9-0.5,1.1C82.4,83.1,82.3,83.1,82.2,83.1z
				 M1.9,81.4h79.4c-0.1-5.1-1.6-34.4-24.1-56.9C36.2,3.5,7.6,1.9,1.9,1.8V81.4z"/>
		</g>
	</g>
</g>
<g id="Group_106" transform="translate(105.082 47.761)">
	<g id="Group_105">
		<g id="Group_104">
			<path id="Path_71" class="st0" d="M58.5,59.4H1c-0.5,0-0.9-0.4-0.9-0.9V1.3C0.1,1.2,0,1.1,0,1c-0.1-0.4,0.2-0.8,0.6-1l0.1,0
				C0.9,0,1,0,1.2,0c3.1,0,24.8,0.7,40.6,16.5C59,33.8,59.3,56.4,59.3,58.4c0,0.2,0,0.3,0,0.5C59.2,59.2,58.8,59.4,58.5,59.4z
				 M1.8,57.7h55.8c-0.1-4.2-1.4-24.3-17-39.9C26.1,3.2,6.4,1.9,1.8,1.8L1.8,57.7z"/>
		</g>
	</g>
</g>
<g id="Group_108" transform="translate(105.685 49.09)">
	<g id="Group_107">
		<path id="Path_72" class="st0" d="M0.9,10.4C0.4,10.4,0,10,0,9.5C0,9.3,0.1,9,0.2,8.9l8.6-8.6c0.3-0.3,0.9-0.3,1.2,0
			s0.3,0.9,0,1.2l-8.6,8.6C1.3,10.3,1.1,10.4,0.9,10.4z"/>
	</g>
</g>
<g id="Group_110" transform="translate(105.53 51.56)">
	<g id="Group_109">
		<path id="Path_73" class="st0" d="M0.9,19.7c-0.5,0-0.9-0.4-0.9-0.9c0-0.2,0.1-0.4,0.3-0.6l18-18c0.3-0.3,0.9-0.3,1.2,0
			c0.3,0.3,0.3,0.9,0,1.2l-18,18C1.3,19.6,1.1,19.7,0.9,19.7z"/>
	</g>
</g>
<g id="Group_112" transform="translate(105.326 55.324)">
	<g id="Group_111">
		<path id="Path_74" class="st0" d="M0.9,28.6c-0.5,0-0.9-0.4-0.9-0.9c0-0.2,0.1-0.5,0.3-0.6L27.1,0.3c0.3-0.3,0.9-0.3,1.2,0
			c0.3,0.3,0.3,0.9,0,1.2L1.5,28.4C1.3,28.5,1.1,28.6,0.9,28.6z"/>
	</g>
</g>
<g id="Group_114" transform="translate(105.523 59.669)">
	<g id="Group_113">
		<path id="Path_75" class="st0" d="M0.9,36C0.4,36,0,35.6,0,35.1c0-0.2,0.1-0.5,0.3-0.6L34.5,0.3c0.3-0.3,0.9-0.3,1.2,0
			c0.3,0.3,0.3,0.9,0,1.2L1.5,35.7C1.3,35.9,1.1,36,0.9,36z"/>
	</g>
</g>
<g id="Group_116" transform="translate(106.243 65.321)">
	<g id="Group_115">
		<path id="Path_76" class="st0" d="M0.9,41.4C0.4,41.4,0,41,0,40.6c0-0.2,0.1-0.5,0.3-0.6L39.9,0.3c0.3-0.3,0.9-0.3,1.2,0
			c0.3,0.3,0.3,0.9,0,1.2L1.5,41.2C1.3,41.3,1.1,41.4,0.9,41.4z"/>
	</g>
</g>
<g id="Group_118" transform="translate(117.715 71.481)">
	<g id="Group_117">
		<path id="Path_77" class="st0" d="M0.9,35.7c-0.5,0-0.9-0.4-0.9-0.9c0-0.2,0.1-0.4,0.3-0.6l34-34c0.3-0.3,0.9-0.3,1.2,0
			c0.3,0.3,0.3,0.9,0,1.2l-34,34C1.3,35.6,1.1,35.7,0.9,35.7z"/>
	</g>
</g>
<g id="Group_120" transform="translate(129.461 79.036)">
	<g id="Group_119">
		<path id="Path_78" class="st0" d="M0.9,28.2c-0.5,0-0.9-0.4-0.9-0.9c0-0.2,0.1-0.4,0.3-0.6L26.7,0.3c0.3-0.3,0.9-0.3,1.2,0
			s0.3,0.9,0,1.2l0,0L1.5,27.9C1.3,28.1,1.1,28.2,0.9,28.2z"/>
	</g>
</g>
<g id="Group_122" transform="translate(141.379 87.317)">
	<g id="Group_121">
		<path id="Path_79" class="st0" d="M0.9,19.6c-0.5,0-0.9-0.4-0.9-0.9c0-0.2,0.1-0.5,0.3-0.6L18.1,0.3c0.3-0.3,0.9-0.3,1.2,0
			c0.3,0.3,0.3,0.9,0,1.2L1.5,19.4C1.3,19.5,1.1,19.6,0.9,19.6z"/>
	</g>
</g>
<g id="Group_124" transform="translate(153.524 96.645)">
	<g id="Group_123">
		<path id="Path_80" class="st0" d="M0.9,10.1C0.4,10.1,0,9.7,0,9.2C0,9,0.1,8.8,0.2,8.6l8.3-8.3c0.3-0.3,0.9-0.3,1.2,0
			c0.3,0.3,0.3,0.9,0,1.2L1.5,9.8C1.3,10,1.1,10.1,0.9,10.1z"/>
	</g>
</g>
<g id="Group_135" transform="translate(112.81 9.511)">
	<g id="Group_125">
		<path id="Path_81" class="st0" d="M3.6,8.9C0.8,8.6-0.3,6.2,0.1,3.8C0.2,1.5,2.2-0.1,4.4,0C5.2,0.1,6,0.4,6.7,0.9l0.4,0.3l0.1-0.9
			l0.8,0.1L7.6,3.7L6.8,3.5L7,2.3C6.4,1.5,5.6,1,4.6,0.8C2.8,0.6,1.1,1.9,0.9,3.7c0,0.1,0,0.2,0,0.2c-0.3,2.3,1,3.9,2.9,4.2
			c1,0.1,2.1-0.1,3-0.6l0.3,0.7C6,8.8,4.8,9.1,3.6,8.9z"/>
	</g>
	<g id="Group_126" transform="translate(10.819 2.046)">
		<path id="Path_82" class="st0" d="M3,8.8C0.7,8.2-0.4,5.9,0.1,3.5c0.5-2.1,2.3-4,5-3.4C8.2,0.9,8.2,4,7.9,5.4
			C7.3,7.8,5.4,9.4,3,8.8z M4.9,0.9C2.6,0.4,1.3,2.4,1,3.7C0.4,5.5,1.3,7.4,3.1,8c0,0,0.1,0,0.1,0c2,0.5,3.4-0.9,3.9-2.8
			C7.4,4.1,7.4,1.5,4.9,0.9L4.9,0.9z"/>
	</g>
	<g id="Group_127" transform="translate(21.176 4.594)">
		<path id="Path_83" class="st0" d="M8,4.9L8.7,3L4.5,1.5l-1,2.9l2.3,0.8l0.4-1L7,4.4l-1,2.9L5.2,7l0.4-1L3.2,5.1L2.2,8l1.9,0.7
			L3.8,9.4L0,8.1l0.3-0.8l1.1,0.4l2.3-6.5L2.6,0.8L2.9,0l6.9,2.5l-1,2.7L8,4.9z"/>
	</g>
	<g id="Group_128" transform="translate(31.421 8.919)">
		<path id="Path_84" class="st0" d="M8.3,5.4l0.9-1.8l-4-2L3.9,4.4l2.2,1.1l0.5-1l0.8,0.4L6,7.6L5.2,7.2l0.5-1L3.5,5.1L2.2,7.8
			L4,8.7L3.6,9.5L0,7.7l0.4-0.7l1,0.5l3.1-6.2L3.4,0.7L3.8,0l6.6,3.3L9.1,5.8L8.3,5.4z"/>
	</g>
	<g id="Group_129" transform="translate(40.863 14.391)">
		<path id="Path_85" class="st0" d="M0,7.1l0.5-0.7l1,0.7l3.8-5.8l-1-0.7L4.7,0l6.1,4.1L9.3,6.5L8.6,6l1.1-1.7L6,1.8L4.3,4.4l2,1.4
			L7,4.8l0.7,0.5L6,7.8L5.3,7.3l0.6-0.9l-2-1.4L2.2,7.6l3.8,2.5L7,8.4l0.7,0.5l-1.6,2.4L0,7.1z"/>
	</g>
	<g id="Group_130" transform="translate(49.832 21.358)">
		<path id="Path_86" class="st0" d="M0,6.4l0.5-0.6l0.9,0.8L6,1.4L5.1,0.6L5.6,0l5.5,4.9L9.3,7L8.6,6.4L10,4.9L6.6,2l-2,2.3l1.8,1.6
			l0.7-0.8l0.6,0.6l-2,2.3L5.2,7.3l0.7-0.8L4.1,4.9l-2,2.3l3.4,3l1.3-1.5l0.6,0.6l-1.9,2.1L0,6.4z"/>
	</g>
	<g id="Group_131" transform="translate(64.787 38.67)">
		<path id="Path_87" class="st0" d="M4.7,10.3c-0.9-0.2-1.6-0.8-2-1.6L0,4.8l0.7-0.5l0.7,1l5.7-3.9l-0.7-1L7.1,0l2.2,3.3
			c0.7,1,1.3,2.1,0.7,3.1C9.8,6.7,9.5,7,9.1,7.3C8.8,7.5,8.3,7.7,7.9,7.7c-0.4,0-0.8-0.2-1.1-0.4C7.3,8.2,7,9.3,6.2,10
			C5.7,10.2,5.2,10.4,4.7,10.3z M6.3,8.2C6.2,7.5,6,6.8,5.5,6.2L4.3,4.4L1.8,6L3.1,8c0.3,0.5,0.7,1,1.2,1.3c0.4,0.3,0.9,0.3,1.4,0
			C6.1,9,6.3,8.6,6.3,8.2L6.3,8.2z M9.2,4.7C8.9,4.2,8.6,3.7,8.3,3.3L7.6,2.2L5,3.9l1,1.5C6.3,6,6.9,6.5,7.5,6.8
			c0.4,0.1,0.9,0,1.2-0.2C9.3,6.1,9.5,5.3,9.2,4.7L9.2,4.7z"/>
	</g>
	<g id="Group_132" transform="translate(70.424 49.524)">
		<path id="Path_88" class="st0" d="M2.8,8l0.7-0.4l0.7,1.3l1.2-1.4l-2-4L1.6,3.8L2.2,5L1.5,5.4L0,2.5l0.7-0.4L1.2,3l7.4-0.6l-1-2
			L8.3,0L10,3.4L4.6,9.7L5,10.4l-0.7,0.4L2.8,8z M9.2,3l-5,0.5L6,6.9L9.2,3z"/>
	</g>
	<g id="Group_133" transform="translate(75.576 59.589)">
		<path id="Path_89" class="st0" d="M2.2,8.8c0.9-1.1,1.8-2.3,2.6-3.6L4.1,3.6l-2.6,1l0.4,1.1L1.1,6L0,3l0.8-0.3l0.4,1.1l6.5-2.4
			L7.3,0.3L8,0l1.6,4.2c0.6,1.1,0.2,2.4-0.9,3C8.6,7.3,8.4,7.4,8.3,7.4C7,7.9,5.6,7.3,5.1,6.1C4.5,7.1,3.8,8,3.1,9l0.5,1.5l-0.8,0.3
			L2.2,8.8z M8.7,6.1c0.4-0.6,0.4-1.3,0.1-1.9L8,2.2L4.9,3.3l0.5,1.4c0.3,0.9,1,2.5,2.5,1.9C8.2,6.5,8.5,6.4,8.7,6.1L8.7,6.1z"/>
	</g>
	<g id="Group_134" transform="translate(81.852 84.141)">
		<path id="Path_90" class="st0" d="M0.5,5.2l0.7-0.6C0.6,4.1,0.1,3.3,0,2.5C-0.2,1.3,0.6,0.2,1.7,0c0,0,0.1,0,0.1,0
			C3-0.1,4.1,0.4,4.7,1.4c0.1-0.1,0.2-0.2,0.2-0.2c0.4-0.4,0.9-0.7,1.5-0.8c0.8-0.1,1.7,0.6,1.9,1.8c0.1,0.7-0.1,1.5-0.4,2.2
			L7.1,4.1C7.4,3.6,7.6,3,7.5,2.4C7.4,1.6,6.8,1.2,6.4,1.2C6,1.3,5.6,1.6,5.2,1.9L2.5,4.5C3.2,4.8,3.9,5,4.6,4.9l0.2,1.8L4,6.8
			L3.9,5.6C3.2,5.6,2.5,5.4,1.9,5L1.4,5.5l0.2,1.9L0.8,7.5L0.5,5.2z M4.2,1.9C3.8,1.2,3,0.7,2.2,0.8C1.4,0.9,0.8,1.6,0.8,2.4
			c0,0,0,0.1,0,0.1c0.1,0.6,0.4,1.2,1,1.5L4.2,1.9z"/>
	</g>
</g>
<g id="Group_144" transform="translate(110.035 32.954)">
	<g id="Group_136">
		<path id="Path_91" class="st0" d="M6.2,9.3C5.6,8,5,6.6,4.2,5.4L2.5,5.2L2.1,7.9l1.2,0.2L3.2,8.9L0,8.5l0.1-0.8l1.2,0.2L2.2,1
			L1,0.8L1.1,0l4.5,0.6c1.2,0,2.2,1,2.3,2.2c0,0.2,0,0.3,0,0.5C7.6,4.6,6.5,5.5,5.1,5.5c0.6,1,1.1,2,1.6,3.1l1.5,0.2L8.2,9.6
			L6.2,9.3z M6.8,2.3c-0.2-0.7-1-0.8-1.7-0.9L3,1.1L2.6,4.3l1.5,0.2C5,4.7,6.8,4.8,7,3.2C7,2.9,7,2.6,6.8,2.3L6.8,2.3z"/>
	</g>
	<g id="Group_137" transform="translate(13.269 3.071)">
		<path id="Path_92" class="st0" d="M2.8,8.7C0.5,8-0.5,5.6,0.2,3.3c0.6-2,2.6-3.9,5.2-3.1c3,0.9,2.9,4.1,2.5,5.4
			C7.2,8,5.2,9.5,2.8,8.7z M5.1,1C2.9,0.3,1.4,2.3,1,3.6C0.4,5.3,1.2,7.2,2.9,7.9c0,0,0.1,0,0.1,0c1.9,0.6,3.5-0.8,4-2.6
			C7.4,4.3,7.6,1.7,5.1,1L5.1,1z"/>
	</g>
	<g id="Group_138" transform="translate(23.428 7.204)">
		<path id="Path_93" class="st0" d="M5.5,9.7L5.8,9l1.3,0.7l0.2-1.8l-3.9-2L2,7l1.2,0.6L2.9,8.4L0,6.9l0.4-0.7l0.8,0.4l5.7-4.9l-2-1
			L5.3,0l3.3,1.7l-0.7,8.4l0.7,0.4l-0.4,0.7L5.5,9.7z M7.8,1.9L4.1,5.2l3.3,1.7L7.8,1.9z"/>
	</g>
	<g id="Group_139" transform="translate(35.262 15.343)">
		<path id="Path_94" class="st0" d="M2.8,7.9C2,7.3,1.4,6.4,1,5.5L0.7,6L0,5.4l1.7-2.1l0.7,0.5L1.6,4.8c0.2,0.9,0.8,1.8,1.6,2.4
			c1.2,1,2.4,1.1,3,0.3C6.4,7.3,6.5,7,6.4,6.6C6.2,5.4,4.6,4.7,4,3.5C3.5,2.7,3.5,1.7,4.1,1c1-1.2,2.8-1.3,4-0.3
			c0.1,0,0.1,0.1,0.2,0.1C8.9,1.3,9.3,2,9.6,2.7l0.3-0.4l0.6,0.5L8.8,5L8.1,4.5l0.8-1C8.8,2.7,8.4,2,7.8,1.5
			C6.7,0.6,5.5,0.6,4.9,1.3C4.4,1.8,4.4,2.5,4.8,3.1c0.5,1,1.8,1.7,2.3,2.8c0.3,0.7,0.3,1.5-0.2,2.1C5.8,9.3,4.1,8.9,2.8,7.9z"/>
	</g>
	<g id="Group_140" transform="translate(45.361 23.167)">
		<path id="Path_95" class="st0" d="M7.7,7.4L9.4,6L7.7,3.9L2.4,8.3l1.2,1.5l-0.6,0.5L0,6.7l0.6-0.5l1.2,1.5l5.3-4.4L5.4,1.2
			L3.8,2.6L3.2,1.9L5.5,0l5.1,6.1L8.3,8L7.7,7.4z"/>
	</g>
	<g id="Group_141" transform="translate(51.961 34.464)">
		<path id="Path_96" class="st0" d="M0,4.1l0.7-0.4l0.6,1.1l6.1-3.3L6.8,0.4L7.5,0L11,6.4L8.5,7.8L8.1,7.1l1.8-1L7.8,2.2L5.1,3.7
			l1.2,2.2l1-0.5L7.6,6L5,7.5L4.6,6.8l1-0.5L4.4,4.1L1.7,5.5l2.2,4l1.8-1l0.4,0.7l-2.5,1.4L0,4.1z"/>
	</g>
	<g id="Group_142" transform="translate(57.461 46.835)">
		<path id="Path_97" class="st0" d="M2,8.6c1-1.1,1.9-2.3,2.7-3.5L4.1,3.5L1.4,4.4l0.4,1.1L1,5.8L0,2.7l0.8-0.3l0.4,1.1l6.6-2.2
			L7.3,0.3L8.1,0l1.4,4.3c0.6,1.1,0.1,2.4-1,3C8.4,7.3,8.3,7.4,8.1,7.4C6.8,7.9,5.5,7.2,5,6C4.3,7,3.6,7.9,2.9,8.8l0.5,1.5l-0.8,0.3
			L2,8.6z M8.6,6.2C9,5.6,9,4.9,8.7,4.3L8,2.2l-3.1,1l0.5,1.5c0.3,0.9,0.9,2.5,2.5,2C8.1,6.5,8.4,6.4,8.6,6.2L8.6,6.2z"/>
	</g>
	<g id="Group_143" transform="translate(61.252 60.098)">
		<path id="Path_98" class="st0" d="M8.4,7.3l-4.8-2L1.2,5.7l0.3,1.9L0.7,7.7L0,3.1L0.8,3l0.3,1.9l2.5-0.4l4-3.3l-0.2-1L8.2,0l0.4,3
			L7.8,3.1L7.7,2.1L4.4,4.8l3.9,1.6l-0.2-1L9,5.2l0.4,3L8.6,8.3L8.4,7.3z"/>
	</g>
</g>
</svg>
